<svg viewBox="0 0 65 80" xmlns="http://www.w3.org"><path fill="black" d="M0,0h1v1-1z M1,0h1v1-1z M2,0h1v1-1z M3,0h1v1-1z M4,0h1v1-1z M5,0h1v1-1z M6,0h1v1-1z M16,0h1v1-1z M18,0h1v1-1z M23,0h1v1-1z M24,0h1v1-1z M25,0h1v1-1z M26,0h1v1-1z M28,0h1v1-1z M29,0h1v1-1z M31,0h1v1-1z M36,0h1v1-1z M37,0h1v1-1z M38,0h1v1-1z M42,0h1v1-1z M44,0h1v1-1z M46,0h1v1-1z M48,0h1v1-1z M50,0h1v1-1z M52,0h1v1-1z M54,0h1v1-1z M55,0h1v1-1z M56,0h1v1-1z M58,0h1v1-1z M59,0h1v1-1z M60,0h1v1-1z M62,0h1v1-1z M63,0h1v1-1z M64,0h1v1-1z M65,0h1v1-1z M66,0h1v1-1z M67,0h1v1-1z M68,0h1v1-1z M0,1h1v1-1z M6,1h1v1-1z M8,1h1v1-1z M9,1h1v1-1z M10,1h1v1-1z M12,1h1v1-1z M15,1h1v1-1z M18,1h1v1-1z M21,1h1v1-1z M27,1h1v1-1z M29,1h1v1-1z M33,1h1v1-1z M37,1h1v1-1z M38,1h1v1-1z M41,1h1v1-1z M42,1h1v1-1z M43,1h1v1-1z M46,1h1v1-1z M47,1h1v1-1z M49,1h1v1-1z M50,1h1v1-1z M54,1h1v1-1z M62,1h1v1-1z M68,1h1v1-1z M0,2h1v1-1z M2,2h1v1-1z M3,2h1v1-1z M4,2h1v1-1z M6,2h1v1-1z M8,2h1v1-1z M9,2h1v1-1z M10,2h1v1-1z M11,2h1v1-1z M15,2h1v1-1z M21,2h1v1-1z M22,2h1v1-1z M23,2h1v1-1z M28,2h1v1-1z M29,2h1v1-1z M31,2h1v1-1z M33,2h1v1-1z M36,2h1v1-1z M39,2h1v1-1z M40,2h1v1-1z M41,2h1v1-1z M43,2h1v1-1z M44,2h1v1-1z M45,2h1v1-1z M46,2h1v1-1z M47,2h1v1-1z M49,2h1v1-1z M50,2h1v1-1z M51,2h1v1-1z M54,2h1v1-1z M55,2h1v1-1z M57,2h1v1-1z M58,2h1v1-1z M62,2h1v1-1z M64,2h1v1-1z M65,2h1v1-1z M66,2h1v1-1z M68,2h1v1-1z M0,3h1v1-1z M2,3h1v1-1z M3,3h1v1-1z M4,3h1v1-1z M6,3h1v1-1z M8,3h1v1-1z M9,3h1v1-1z M11,3h1v1-1z M12,3h1v1-1z M16,3h1v1-1z M17,3h1v1-1z M20,3h1v1-1z M21,3h1v1-1z M22,3h1v1-1z M24,3h1v1-1z M25,3h1v1-1z M27,3h1v1-1z M28,3h1v1-1z M30,3h1v1-1z M31,3h1v1-1z M32,3h1v1-1z M33,3h1v1-1z M35,3h1v1-1z M38,3h1v1-1z M40,3h1v1-1z M44,3h1v1-1z M46,3h1v1-1z M47,3h1v1-1z M49,3h1v1-1z M50,3h1v1-1z M53,3h1v1-1z M55,3h1v1-1z M57,3h1v1-1z M60,3h1v1-1z M62,3h1v1-1z M64,3h1v1-1z M65,3h1v1-1z M66,3h1v1-1z M68,3h1v1-1z M0,4h1v1-1z M2,4h1v1-1z M3,4h1v1-1z M4,4h1v1-1z M6,4h1v1-1z M8,4h1v1-1z M10,4h1v1-1z M11,4h1v1-1z M12,4h1v1-1z M13,4h1v1-1z M15,4h1v1-1z M18,4h1v1-1z M20,4h1v1-1z M21,4h1v1-1z M22,4h1v1-1z M23,4h1v1-1z M27,4h1v1-1z M28,4h1v1-1z M32,4h1v1-1z M33,4h1v1-1z M34,4h1v1-1z M35,4h1v1-1z M36,4h1v1-1z M37,4h1v1-1z M38,4h1v1-1z M39,4h1v1-1z M43,4h1v1-1z M46,4h1v1-1z M48,4h1v1-1z M50,4h1v1-1z M52,4h1v1-1z M54,4h1v1-1z M58,4h1v1-1z M60,4h1v1-1z M62,4h1v1-1z M64,4h1v1-1z M65,4h1v1-1z M66,4h1v1-1z M68,4h1v1-1z M0,5h1v1-1z M6,5h1v1-1z M8,5h1v1-1z M9,5h1v1-1z M11,5h1v1-1z M14,5h1v1-1z M15,5h1v1-1z M19,5h1v1-1z M20,5h1v1-1z M21,5h1v1-1z M22,5h1v1-1z M24,5h1v1-1z M25,5h1v1-1z M27,5h1v1-1z M28,5h1v1-1z M30,5h1v1-1z M32,5h1v1-1z M36,5h1v1-1z M39,5h1v1-1z M46,5h1v1-1z M49,5h1v1-1z M50,5h1v1-1z M52,5h1v1-1z M53,5h1v1-1z M54,5h1v1-1z M58,5h1v1-1z M62,5h1v1-1z M68,5h1v1-1z M0,6h1v1-1z M1,6h1v1-1z M2,6h1v1-1z M3,6h1v1-1z M4,6h1v1-1z M5,6h1v1-1z M6,6h1v1-1z M8,6h1v1-1z M10,6h1v1-1z M12,6h1v1-1z M14,6h1v1-1z M16,6h1v1-1z M18,6h1v1-1z M20,6h1v1-1z M22,6h1v1-1z M24,6h1v1-1z M26,6h1v1-1z M28,6h1v1-1z M30,6h1v1-1z M32,6h1v1-1z M34,6h1v1-1z M36,6h1v1-1z M38,6h1v1-1z M40,6h1v1-1z M42,6h1v1-1z M44,6h1v1-1z M46,6h1v1-1z M48,6h1v1-1z M50,6h1v1-1z M52,6h1v1-1z M54,6h1v1-1z M56,6h1v1-1z M58,6h1v1-1z M60,6h1v1-1z M62,6h1v1-1z M63,6h1v1-1z M64,6h1v1-1z M65,6h1v1-1z M66,6h1v1-1z M67,6h1v1-1z M68,6h1v1-1z M9,7h1v1-1z M10,7h1v1-1z M12,7h1v1-1z M13,7h1v1-1z M17,7h1v1-1z M21,7h1v1-1z M23,7h1v1-1z M28,7h1v1-1z M29,7h1v1-1z M30,7h1v1-1z M32,7h1v1-1z M36,7h1v1-1z M38,7h1v1-1z M40,7h1v1-1z M48,7h1v1-1z M52,7h1v1-1z M53,7h1v1-1z M54,7h1v1-1z M56,7h1v1-1z M57,7h1v1-1z M2,8h1v1-1z M5,8h1v1-1z M6,8h1v1-1z M7,8h1v1-1z M8,8h1v1-1z M10,8h1v1-1z M12,8h1v1-1z M14,8h1v1-1z M17,8h1v1-1z M18,8h1v1-1z M20,8h1v1-1z M23,8h1v1-1z M24,8h1v1-1z M25,8h1v1-1z M27,8h1v1-1z M29,8h1v1-1z M30,8h1v1-1z M31,8h1v1-1z M32,8h1v1-1z M33,8h1v1-1z M34,8h1v1-1z M35,8h1v1-1z M36,8h1v1-1z M37,8h1v1-1z M38,8h1v1-1z M39,8h1v1-1z M40,8h1v1-1z M44,8h1v1-1z M45,8h1v1-1z M46,8h1v1-1z M47,8h1v1-1z M48,8h1v1-1z M49,8h1v1-1z M50,8h1v1-1z M52,8h1v1-1z M53,8h1v1-1z M54,8h1v1-1z M56,8h1v1-1z M58,8h1v1-1z M59,8h1v1-1z M61,8h1v1-1z M63,8h1v1-1z M64,8h1v1-1z M65,8h1v1-1z M66,8h1v1-1z M67,8h1v1-1z M0,9h1v1-1z M4,9h1v1-1z M5,9h1v1-1z M7,9h1v1-1z M9,9h1v1-1z M15,9h1v1-1z M18,9h1v1-1z M24,9h1v1-1z M28,9h1v1-1z M29,9h1v1-1z M31,9h1v1-1z M32,9h1v1-1z M33,9h1v1-1z M34,9h1v1-1z M36,9h1v1-1z M38,9h1v1-1z M40,9h1v1-1z M41,9h1v1-1z M42,9h1v1-1z M45,9h1v1-1z M47,9h1v1-1z M49,9h1v1-1z M51,9h1v1-1z M52,9h1v1-1z M53,9h1v1-1z M55,9h1v1-1z M57,9h1v1-1z M59,9h1v1-1z M61,9h1v1-1z M63,9h1v1-1z M68,9h1v1-1z M1,10h1v1-1z M2,10h1v1-1z M3,10h1v1-1z M4,10h1v1-1z M5,10h1v1-1z M6,10h1v1-1z M10,10h1v1-1z M11,10h1v1-1z M14,10h1v1-1z M16,10h1v1-1z M17,10h1v1-1z M18,10h1v1-1z M19,10h1v1-1z M24,10h1v1-1z M27,10h1v1-1z M29,10h1v1-1z M30,10h1v1-1z M31,10h1v1-1z M34,10h1v1-1z M37,10h1v1-1z M39,10h1v1-1z M42,10h1v1-1z M43,10h1v1-1z M44,10h1v1-1z M48,10h1v1-1z M53,10h1v1-1z M55,10h1v1-1z M59,10h1v1-1z M60,10h1v1-1z M61,10h1v1-1z M64,10h1v1-1z M66,10h1v1-1z M68,10h1v1-1z M2,11h1v1-1z M7,11h1v1-1z M8,11h1v1-1z M9,11h1v1-1z M11,11h1v1-1z M12,11h1v1-1z M13,11h1v1-1z M18,11h1v1-1z M20,11h1v1-1z M24,11h1v1-1z M26,11h1v1-1z M27,11h1v1-1z M28,11h1v1-1z M35,11h1v1-1z M38,11h1v1-1z M42,11h1v1-1z M43,11h1v1-1z M44,11h1v1-1z M45,11h1v1-1z M47,11h1v1-1z M48,11h1v1-1z M49,11h1v1-1z M50,11h1v1-1z M52,11h1v1-1z M54,11h1v1-1z M56,11h1v1-1z M57,11h1v1-1z M59,11h1v1-1z M60,11h1v1-1z M61,11h1v1-1z M64,11h1v1-1z M67,11h1v1-1z M68,11h1v1-1z M3,12h1v1-1z M6,12h1v1-1z M7,12h1v1-1z M9,12h1v1-1z M11,12h1v1-1z M14,12h1v1-1z M16,12h1v1-1z M17,12h1v1-1z M18,12h1v1-1z M19,12h1v1-1z M22,12h1v1-1z M27,12h1v1-1z M29,12h1v1-1z M30,12h1v1-1z M32,12h1v1-1z M35,12h1v1-1z M36,12h1v1-1z M37,12h1v1-1z M38,12h1v1-1z M40,12h1v1-1z M41,12h1v1-1z M46,12h1v1-1z M48,12h1v1-1z M52,12h1v1-1z M53,12h1v1-1z M54,12h1v1-1z M55,12h1v1-1z M56,12h1v1-1z M58,12h1v1-1z M59,12h1v1-1z M62,12h1v1-1z M64,12h1v1-1z M66,12h1v1-1z M68,12h1v1-1z M0,13h1v1-1z M2,13h1v1-1z M8,13h1v1-1z M9,13h1v1-1z M11,13h1v1-1z M12,13h1v1-1z M14,13h1v1-1z M15,13h1v1-1z M19,13h1v1-1z M20,13h1v1-1z M26,13h1v1-1z M29,13h1v1-1z M30,13h1v1-1z M33,13h1v1-1z M34,13h1v1-1z M35,13h1v1-1z M36,13h1v1-1z M41,13h1v1-1z M42,13h1v1-1z M44,13h1v1-1z M47,13h1v1-1z M48,13h1v1-1z M49,13h1v1-1z M55,13h1v1-1z M57,13h1v1-1z M59,13h1v1-1z M61,13h1v1-1z M63,13h1v1-1z M67,13h1v1-1z M68,13h1v1-1z M1,14h1v1-1z M2,14h1v1-1z M3,14h1v1-1z M5,14h1v1-1z M6,14h1v1-1z M8,14h1v1-1z M9,14h1v1-1z M11,14h1v1-1z M12,14h1v1-1z M13,14h1v1-1z M15,14h1v1-1z M17,14h1v1-1z M19,14h1v1-1z M22,14h1v1-1z M27,14h1v1-1z M29,14h1v1-1z M30,14h1v1-1z M33,14h1v1-1z M34,14h1v1-1z M35,14h1v1-1z M36,14h1v1-1z M37,14h1v1-1z M39,14h1v1-1z M40,14h1v1-1z M42,14h1v1-1z M43,14h1v1-1z M45,14h1v1-1z M47,14h1v1-1z M48,14h1v1-1z M51,14h1v1-1z M52,14h1v1-1z M53,14h1v1-1z M56,14h1v1-1z M59,14h1v1-1z M60,14h1v1-1z M64,14h1v1-1z M65,14h1v1-1z M66,14h1v1-1z M68,14h1v1-1z M0,15h1v1-1z M1,15h1v1-1z M2,15h1v1-1z M3,15h1v1-1z M9,15h1v1-1z M10,15h1v1-1z M11,15h1v1-1z M17,15h1v1-1z M18,15h1v1-1z M23,15h1v1-1z M27,15h1v1-1z M30,15h1v1-1z M31,15h1v1-1z M32,15h1v1-1z M33,15h1v1-1z M36,15h1v1-1z M37,15h1v1-1z M40,15h1v1-1z M42,15h1v1-1z M43,15h1v1-1z M48,15h1v1-1z M50,15h1v1-1z M52,15h1v1-1z M54,15h1v1-1z M56,15h1v1-1z M59,15h1v1-1z M64,15h1v1-1z M66,15h1v1-1z M67,15h1v1-1z M1,16h1v1-1z M4,16h1v1-1z M5,16h1v1-1z M6,16h1v1-1z M8,16h1v1-1z M9,16h1v1-1z M10,16h1v1-1z M13,16h1v1-1z M18,16h1v1-1z M20,16h1v1-1z M24,16h1v1-1z M25,16h1v1-1z M26,16h1v1-1z M32,16h1v1-1z M35,16h1v1-1z M36,16h1v1-1z M38,16h1v1-1z M41,16h1v1-1z M44,16h1v1-1z M46,16h1v1-1z M48,16h1v1-1z M50,16h1v1-1z M51,16h1v1-1z M52,16h1v1-1z M54,16h1v1-1z M56,16h1v1-1z M57,16h1v1-1z M61,16h1v1-1z M62,16h1v1-1z M63,16h1v1-1z M64,16h1v1-1z M66,16h1v1-1z M68,16h1v1-1z M0,17h1v1-1z M2,17h1v1-1z M3,17h1v1-1z M5,17h1v1-1z M8,17h1v1-1z M9,17h1v1-1z M10,17h1v1-1z M11,17h1v1-1z M12,17h1v1-1z M13,17h1v1-1z M16,17h1v1-1z M17,17h1v1-1z M20,17h1v1-1z M21,17h1v1-1z M23,17h1v1-1z M25,17h1v1-1z M26,17h1v1-1z M33,17h1v1-1z M34,17h1v1-1z M35,17h1v1-1z M37,17h1v1-1z M39,17h1v1-1z M40,17h1v1-1z M43,17h1v1-1z M44,17h1v1-1z M47,17h1v1-1z M49,17h1v1-1z M52,17h1v1-1z M53,17h1v1-1z M57,17h1v1-1z M59,17h1v1-1z M61,17h1v1-1z M63,17h1v1-1z M64,17h1v1-1z M65,17h1v1-1z M67,17h1v1-1z M68,17h1v1-1z M0,18h1v1-1z M1,18h1v1-1z M3,18h1v1-1z M5,18h1v1-1z M6,18h1v1-1z M9,18h1v1-1z M13,18h1v1-1z M18,18h1v1-1z M20,18h1v1-1z M21,18h1v1-1z M23,18h1v1-1z M25,18h1v1-1z M27,18h1v1-1z M28,18h1v1-1z M31,18h1v1-1z M33,18h1v1-1z M36,18h1v1-1z M38,18h1v1-1z M46,18h1v1-1z M47,18h1v1-1z M48,18h1v1-1z M49,18h1v1-1z M51,18h1v1-1z M52,18h1v1-1z M53,18h1v1-1z M55,18h1v1-1z M56,18h1v1-1z M57,18h1v1-1z M59,18h1v1-1z M61,18h1v1-1z M64,18h1v1-1z M65,18h1v1-1z M66,18h1v1-1z M68,18h1v1-1z M2,19h1v1-1z M3,19h1v1-1z M4,19h1v1-1z M5,19h1v1-1z M10,19h1v1-1z M12,19h1v1-1z M13,19h1v1-1z M16,19h1v1-1z M17,19h1v1-1z M18,19h1v1-1z M24,19h1v1-1z M25,19h1v1-1z M27,19h1v1-1z M28,19h1v1-1z M30,19h1v1-1z M32,19h1v1-1z M33,19h1v1-1z M34,19h1v1-1z M35,19h1v1-1z M37,19h1v1-1z M38,19h1v1-1z M41,19h1v1-1z M42,19h1v1-1z M43,19h1v1-1z M44,19h1v1-1z M48,19h1v1-1z M50,19h1v1-1z M52,19h1v1-1z M53,19h1v1-1z M54,19h1v1-1z M56,19h1v1-1z M57,19h1v1-1z M58,19h1v1-1z M61,19h1v1-1z M64,19h1v1-1z M65,19h1v1-1z M67,19h1v1-1z M68,19h1v1-1z M2,20h1v1-1z M3,20h1v1-1z M6,20h1v1-1z M7,20h1v1-1z M8,20h1v1-1z M12,20h1v1-1z M14,20h1v1-1z M15,20h1v1-1z M16,20h1v1-1z M19,20h1v1-1z M20,20h1v1-1z M22,20h1v1-1z M23,20h1v1-1z M24,20h1v1-1z M25,20h1v1-1z M26,20h1v1-1z M28,20h1v1-1z M29,20h1v1-1z M30,20h1v1-1z M32,20h1v1-1z M34,20h1v1-1z M39,20h1v1-1z M40,20h1v1-1z M41,20h1v1-1z M42,20h1v1-1z M44,20h1v1-1z M46,20h1v1-1z M48,20h1v1-1z M50,20h1v1-1z M52,20h1v1-1z M56,20h1v1-1z M57,20h1v1-1z M58,20h1v1-1z M62,20h1v1-1z M64,20h1v1-1z M65,20h1v1-1z M1,21h1v1-1z M2,21h1v1-1z M3,21h1v1-1z M7,21h1v1-1z M9,21h1v1-1z M10,21h1v1-1z M11,21h1v1-1z M13,21h1v1-1z M14,21h1v1-1z M18,21h1v1-1z M19,21h1v1-1z M20,21h1v1-1z M23,21h1v1-1z M27,21h1v1-1z M29,21h1v1-1z M31,21h1v1-1z M32,21h1v1-1z M35,21h1v1-1z M37,21h1v1-1z M39,21h1v1-1z M41,21h1v1-1z M43,21h1v1-1z M44,21h1v1-1z M49,21h1v1-1z M51,21h1v1-1z M52,21h1v1-1z M53,21h1v1-1z M55,21h1v1-1z M56,21h1v1-1z M57,21h1v1-1z M59,21h1v1-1z M61,21h1v1-1z M66,21h1v1-1z M67,21h1v1-1z M68,21h1v1-1z M0,22h1v1-1z M6,22h1v1-1z M12,22h1v1-1z M14,22h1v1-1z M16,22h1v1-1z M17,22h1v1-1z M18,22h1v1-1z M19,22h1v1-1z M20,22h1v1-1z M21,22h1v1-1z M23,22h1v1-1z M25,22h1v1-1z M27,22h1v1-1z M28,22h1v1-1z M29,22h1v1-1z M31,22h1v1-1z M33,22h1v1-1z M34,22h1v1-1z M38,22h1v1-1z M46,22h1v1-1z M47,22h1v1-1z M48,22h1v1-1z M49,22h1v1-1z M53,22h1v1-1z M55,22h1v1-1z M56,22h1v1-1z M60,22h1v1-1z M63,22h1v1-1z M64,22h1v1-1z M65,22h1v1-1z M66,22h1v1-1z M68,22h1v1-1z M1,23h1v1-1z M2,23h1v1-1z M5,23h1v1-1z M8,23h1v1-1z M10,23h1v1-1z M12,23h1v1-1z M16,23h1v1-1z M17,23h1v1-1z M18,23h1v1-1z M20,23h1v1-1z M21,23h1v1-1z M22,23h1v1-1z M27,23h1v1-1z M28,23h1v1-1z M30,23h1v1-1z M32,23h1v1-1z M33,23h1v1-1z M38,23h1v1-1z M40,23h1v1-1z M41,23h1v1-1z M48,23h1v1-1z M52,23h1v1-1z M53,23h1v1-1z M54,23h1v1-1z M56,23h1v1-1z M61,23h1v1-1z M62,23h1v1-1z M64,23h1v1-1z M65,23h1v1-1z M67,23h1v1-1z M68,23h1v1-1z M1,24h1v1-1z M6,24h1v1-1z M13,24h1v1-1z M16,24h1v1-1z M21,24h1v1-1z M22,24h1v1-1z M25,24h1v1-1z M26,24h1v1-1z M27,24h1v1-1z M28,24h1v1-1z M29,24h1v1-1z M30,24h1v1-1z M31,24h1v1-1z M35,24h1v1-1z M37,24h1v1-1z M40,24h1v1-1z M44,24h1v1-1z M45,24h1v1-1z M48,24h1v1-1z M50,24h1v1-1z M52,24h1v1-1z M53,24h1v1-1z M54,24h1v1-1z M55,24h1v1-1z M56,24h1v1-1z M57,24h1v1-1z M58,24h1v1-1z M64,24h1v1-1z M65,24h1v1-1z M68,24h1v1-1z M0,25h1v1-1z M3,25h1v1-1z M4,25h1v1-1z M11,25h1v1-1z M13,25h1v1-1z M14,25h1v1-1z M16,25h1v1-1z M19,25h1v1-1z M20,25h1v1-1z M22,25h1v1-1z M24,25h1v1-1z M25,25h1v1-1z M26,25h1v1-1z M27,25h1v1-1z M29,25h1v1-1z M30,25h1v1-1z M31,25h1v1-1z M32,25h1v1-1z M34,25h1v1-1z M35,25h1v1-1z M38,25h1v1-1z M39,25h1v1-1z M44,25h1v1-1z M45,25h1v1-1z M47,25h1v1-1z M51,25h1v1-1z M53,25h1v1-1z M55,25h1v1-1z M56,25h1v1-1z M57,25h1v1-1z M59,25h1v1-1z M61,25h1v1-1z M64,25h1v1-1z M68,25h1v1-1z M1,26h1v1-1z M3,26h1v1-1z M4,26h1v1-1z M5,26h1v1-1z M6,26h1v1-1z M8,26h1v1-1z M10,26h1v1-1z M12,26h1v1-1z M14,26h1v1-1z M15,26h1v1-1z M18,26h1v1-1z M19,26h1v1-1z M20,26h1v1-1z M22,26h1v1-1z M26,26h1v1-1z M27,26h1v1-1z M29,26h1v1-1z M30,26h1v1-1z M33,26h1v1-1z M36,26h1v1-1z M37,26h1v1-1z M38,26h1v1-1z M39,26h1v1-1z M41,26h1v1-1z M45,26h1v1-1z M47,26h1v1-1z M50,26h1v1-1z M52,26h1v1-1z M53,26h1v1-1z M55,26h1v1-1z M57,26h1v1-1z M60,26h1v1-1z M61,26h1v1-1z M65,26h1v1-1z M66,26h1v1-1z M68,26h1v1-1z M0,27h1v1-1z M1,27h1v1-1z M4,27h1v1-1z M5,27h1v1-1z M7,27h1v1-1z M9,27h1v1-1z M10,27h1v1-1z M12,27h1v1-1z M14,27h1v1-1z M15,27h1v1-1z M16,27h1v1-1z M17,27h1v1-1z M18,27h1v1-1z M19,27h1v1-1z M22,27h1v1-1z M23,27h1v1-1z M24,27h1v1-1z M26,27h1v1-1z M29,27h1v1-1z M32,27h1v1-1z M34,27h1v1-1z M36,27h1v1-1z M41,27h1v1-1z M44,27h1v1-1z M48,27h1v1-1z M52,27h1v1-1z M53,27h1v1-1z M64,27h1v1-1z M65,27h1v1-1z M2,28h1v1-1z M6,28h1v1-1z M8,28h1v1-1z M11,28h1v1-1z M12,28h1v1-1z M13,28h1v1-1z M15,28h1v1-1z M16,28h1v1-1z M18,28h1v1-1z M21,28h1v1-1z M22,28h1v1-1z M23,28h1v1-1z M24,28h1v1-1z M27,28h1v1-1z M31,28h1v1-1z M32,28h1v1-1z M33,28h1v1-1z M34,28h1v1-1z M36,28h1v1-1z M38,28h1v1-1z M39,28h1v1-1z M45,28h1v1-1z M46,28h1v1-1z M48,28h1v1-1z M50,28h1v1-1z M52,28h1v1-1z M53,28h1v1-1z M54,28h1v1-1z M57,28h1v1-1z M58,28h1v1-1z M59,28h1v1-1z M60,28h1v1-1z M62,28h1v1-1z M63,28h1v1-1z M64,28h1v1-1z M65,28h1v1-1z M68,28h1v1-1z M1,29h1v1-1z M2,29h1v1-1z M4,29h1v1-1z M8,29h1v1-1z M11,29h1v1-1z M12,29h1v1-1z M13,29h1v1-1z M14,29h1v1-1z M18,29h1v1-1z M22,29h1v1-1z M23,29h1v1-1z M24,29h1v1-1z M26,29h1v1-1z M29,29h1v1-1z M30,29h1v1-1z M31,29h1v1-1z M32,29h1v1-1z M33,29h1v1-1z M35,29h1v1-1z M37,29h1v1-1z M40,29h1v1-1z M43,29h1v1-1z M45,29h1v1-1z M51,29h1v1-1z M53,29h1v1-1z M56,29h1v1-1z M57,29h1v1-1z M59,29h1v1-1z M60,29h1v1-1z M64,29h1v1-1z M65,29h1v1-1z M66,29h1v1-1z M68,29h1v1-1z M2,30h1v1-1z M6,30h1v1-1z M8,30h1v1-1z M11,30h1v1-1z M12,30h1v1-1z M13,30h1v1-1z M15,30h1v1-1z M16,30h1v1-1z M17,30h1v1-1z M21,30h1v1-1z M23,30h1v1-1z M26,30h1v1-1z M28,30h1v1-1z M31,30h1v1-1z M32,30h1v1-1z M33,30h1v1-1z M34,30h1v1-1z M35,30h1v1-1z M36,30h1v1-1z M37,30h1v1-1z M38,30h1v1-1z M44,30h1v1-1z M45,30h1v1-1z M50,30h1v1-1z M52,30h1v1-1z M59,30h1v1-1z M62,30h1v1-1z M65,30h1v1-1z M68,30h1v1-1z M1,31h1v1-1z M2,31h1v1-1z M5,31h1v1-1z M7,31h1v1-1z M10,31h1v1-1z M11,31h1v1-1z M12,31h1v1-1z M13,31h1v1-1z M15,31h1v1-1z M16,31h1v1-1z M17,31h1v1-1z M18,31h1v1-1z M19,31h1v1-1z M21,31h1v1-1z M23,31h1v1-1z M25,31h1v1-1z M27,31h1v1-1z M28,31h1v1-1z M29,31h1v1-1z M31,31h1v1-1z M32,31h1v1-1z M35,31h1v1-1z M39,31h1v1-1z M41,31h1v1-1z M42,31h1v1-1z M45,31h1v1-1z M46,31h1v1-1z M48,31h1v1-1z M49,31h1v1-1z M50,31h1v1-1z M52,31h1v1-1z M58,31h1v1-1z M59,31h1v1-1z M60,31h1v1-1z M64,31h1v1-1z M65,31h1v1-1z M2,32h1v1-1z M3,32h1v1-1z M4,32h1v1-1z M5,32h1v1-1z M6,32h1v1-1z M7,32h1v1-1z M8,32h1v1-1z M9,32h1v1-1z M12,32h1v1-1z M14,32h1v1-1z M16,32h1v1-1z M20,32h1v1-1z M22,32h1v1-1z M24,32h1v1-1z M25,32h1v1-1z M28,32h1v1-1z M29,32h1v1-1z M30,32h1v1-1z M31,32h1v1-1z M32,32h1v1-1z M33,32h1v1-1z M34,32h1v1-1z M35,32h1v1-1z M36,32h1v1-1z M37,32h1v1-1z M38,32h1v1-1z M39,32h1v1-1z M40,32h1v1-1z M41,32h1v1-1z M45,32h1v1-1z M48,32h1v1-1z M52,32h1v1-1z M54,32h1v1-1z M57,32h1v1-1z M58,32h1v1-1z M59,32h1v1-1z M60,32h1v1-1z M61,32h1v1-1z M62,32h1v1-1z M63,32h1v1-1z M64,32h1v1-1z M65,32h1v1-1z M67,32h1v1-1z M68,32h1v1-1z M0,33h1v1-1z M1,33h1v1-1z M3,33h1v1-1z M4,33h1v1-1z M8,33h1v1-1z M11,33h1v1-1z M12,33h1v1-1z M13,33h1v1-1z M16,33h1v1-1z M17,33h1v1-1z M19,33h1v1-1z M20,33h1v1-1z M22,33h1v1-1z M27,33h1v1-1z M30,33h1v1-1z M31,33h1v1-1z M32,33h1v1-1z M36,33h1v1-1z M37,33h1v1-1z M39,33h1v1-1z M40,33h1v1-1z M41,33h1v1-1z M45,33h1v1-1z M46,33h1v1-1z M48,33h1v1-1z M49,33h1v1-1z M51,33h1v1-1z M52,33h1v1-1z M56,33h1v1-1z M57,33h1v1-1z M59,33h1v1-1z M60,33h1v1-1z M64,33h1v1-1z M65,33h1v1-1z M66,33h1v1-1z M68,33h1v1-1z M0,34h1v1-1z M2,34h1v1-1z M3,34h1v1-1z M4,34h1v1-1z M6,34h1v1-1z M8,34h1v1-1z M10,34h1v1-1z M14,34h1v1-1z M16,34h1v1-1z M20,34h1v1-1z M21,34h1v1-1z M24,34h1v1-1z M26,34h1v1-1z M28,34h1v1-1z M31,34h1v1-1z M32,34h1v1-1z M34,34h1v1-1z M36,34h1v1-1z M37,34h1v1-1z M39,34h1v1-1z M43,34h1v1-1z M45,34h1v1-1z M46,34h1v1-1z M47,34h1v1-1z M48,34h1v1-1z M51,34h1v1-1z M52,34h1v1-1z M54,34h1v1-1z M60,34h1v1-1z M62,34h1v1-1z M64,34h1v1-1z M68,34h1v1-1z M0,35h1v1-1z M1,35h1v1-1z M3,35h1v1-1z M4,35h1v1-1z M8,35h1v1-1z M13,35h1v1-1z M14,35h1v1-1z M15,35h1v1-1z M17,35h1v1-1z M18,35h1v1-1z M19,35h1v1-1z M20,35h1v1-1z M23,35h1v1-1z M25,35h1v1-1z M26,35h1v1-1z M27,35h1v1-1z M29,35h1v1-1z M30,35h1v1-1z M31,35h1v1-1z M32,35h1v1-1z M36,35h1v1-1z M38,35h1v1-1z M40,35h1v1-1z M41,35h1v1-1z M42,35h1v1-1z M43,35h1v1-1z M44,35h1v1-1z M45,35h1v1-1z M46,35h1v1-1z M48,35h1v1-1z M49,35h1v1-1z M50,35h1v1-1z M55,35h1v1-1z M56,35h1v1-1z M57,35h1v1-1z M58,35h1v1-1z M60,35h1v1-1z M64,35h1v1-1z M65,35h1v1-1z M68,35h1v1-1z M0,36h1v1-1z M2,36h1v1-1z M3,36h1v1-1z M4,36h1v1-1z M5,36h1v1-1z M6,36h1v1-1z M7,36h1v1-1z M8,36h1v1-1z M9,36h1v1-1z M10,36h1v1-1z M12,36h1v1-1z M13,36h1v1-1z M14,36h1v1-1z M15,36h1v1-1z M17,36h1v1-1z M22,36h1v1-1z M25,36h1v1-1z M30,36h1v1-1z M31,36h1v1-1z M32,36h1v1-1z M33,36h1v1-1z M34,36h1v1-1z M35,36h1v1-1z M36,36h1v1-1z M38,36h1v1-1z M39,36h1v1-1z M42,36h1v1-1z M44,36h1v1-1z M45,36h1v1-1z M47,36h1v1-1z M48,36h1v1-1z M49,36h1v1-1z M50,36h1v1-1z M54,36h1v1-1z M56,36h1v1-1z M57,36h1v1-1z M59,36h1v1-1z M60,36h1v1-1z M61,36h1v1-1z M62,36h1v1-1z M63,36h1v1-1z M64,36h1v1-1z M65,36h1v1-1z M67,36h1v1-1z M68,36h1v1-1z M0,37h1v1-1z M3,37h1v1-1z M4,37h1v1-1z M5,37h1v1-1z M7,37h1v1-1z M8,37h1v1-1z M12,37h1v1-1z M14,37h1v1-1z M16,37h1v1-1z M17,37h1v1-1z M24,37h1v1-1z M26,37h1v1-1z M27,37h1v1-1z M28,37h1v1-1z M29,37h1v1-1z M31,37h1v1-1z M32,37h1v1-1z M34,37h1v1-1z M37,37h1v1-1z M43,37h1v1-1z M45,37h1v1-1z M46,37h1v1-1z M49,37h1v1-1z M52,37h1v1-1z M59,37h1v1-1z M66,37h1v1-1z M68,37h1v1-1z M4,38h1v1-1z M6,38h1v1-1z M11,38h1v1-1z M12,38h1v1-1z M13,38h1v1-1z M14,38h1v1-1z M16,38h1v1-1z M17,38h1v1-1z M18,38h1v1-1z M19,38h1v1-1z M27,38h1v1-1z M28,38h1v1-1z M34,38h1v1-1z M35,38h1v1-1z M36,38h1v1-1z M37,38h1v1-1z M42,38h1v1-1z M43,38h1v1-1z M44,38h1v1-1z M45,38h1v1-1z M46,38h1v1-1z M48,38h1v1-1z M54,38h1v1-1z M55,38h1v1-1z M56,38h1v1-1z M57,38h1v1-1z M59,38h1v1-1z M60,38h1v1-1z M62,38h1v1-1z M64,38h1v1-1z M66,38h1v1-1z M68,38h1v1-1z M0,39h1v1-1z M3,39h1v1-1z M4,39h1v1-1z M5,39h1v1-1z M7,39h1v1-1z M8,39h1v1-1z M10,39h1v1-1z M12,39h1v1-1z M13,39h1v1-1z M15,39h1v1-1z M16,39h1v1-1z M17,39h1v1-1z M20,39h1v1-1z M22,39h1v1-1z M28,39h1v1-1z M30,39h1v1-1z M31,39h1v1-1z M36,39h1v1-1z M38,39h1v1-1z M39,39h1v1-1z M40,39h1v1-1z M41,39h1v1-1z M45,39h1v1-1z M48,39h1v1-1z M56,39h1v1-1z M57,39h1v1-1z M59,39h1v1-1z M60,39h1v1-1z M62,39h1v1-1z M63,39h1v1-1z M65,39h1v1-1z M67,39h1v1-1z M0,40h1v1-1z M1,40h1v1-1z M2,40h1v1-1z M3,40h1v1-1z M4,40h1v1-1z M5,40h1v1-1z M6,40h1v1-1z M8,40h1v1-1z M9,40h1v1-1z M10,40h1v1-1z M11,40h1v1-1z M12,40h1v1-1z M19,40h1v1-1z M20,40h1v1-1z M23,40h1v1-1z M25,40h1v1-1z M28,40h1v1-1z M29,40h1v1-1z M34,40h1v1-1z M36,40h1v1-1z M37,40h1v1-1z M40,40h1v1-1z M41,40h1v1-1z M42,40h1v1-1z M43,40h1v1-1z M45,40h1v1-1z M48,40h1v1-1z M50,40h1v1-1z M53,40h1v1-1z M54,40h1v1-1z M56,40h1v1-1z M58,40h1v1-1z M59,40h1v1-1z M60,40h1v1-1z M61,40h1v1-1z M62,40h1v1-1z M65,40h1v1-1z M67,40h1v1-1z M2,41h1v1-1z M3,41h1v1-1z M7,41h1v1-1z M8,41h1v1-1z M10,41h1v1-1z M13,41h1v1-1z M18,41h1v1-1z M20,41h1v1-1z M22,41h1v1-1z M23,41h1v1-1z M24,41h1v1-1z M25,41h1v1-1z M26,41h1v1-1z M27,41h1v1-1z M28,41h1v1-1z M29,41h1v1-1z M30,41h1v1-1z M36,41h1v1-1z M37,41h1v1-1z M38,41h1v1-1z M39,41h1v1-1z M42,41h1v1-1z M44,41h1v1-1z M45,41h1v1-1z M46,41h1v1-1z M47,41h1v1-1z M49,41h1v1-1z M52,41h1v1-1z M53,41h1v1-1z M59,41h1v1-1z M63,41h1v1-1z M65,41h1v1-1z M66,41h1v1-1z M68,41h1v1-1z M0,42h1v1-1z M1,42h1v1-1z M2,42h1v1-1z M3,42h1v1-1z M6,42h1v1-1z M8,42h1v1-1z M9,42h1v1-1z M11,42h1v1-1z M13,42h1v1-1z M15,42h1v1-1z M16,42h1v1-1z M17,42h1v1-1z M19,42h1v1-1z M21,42h1v1-1z M23,42h1v1-1z M25,42h1v1-1z M30,42h1v1-1z M32,42h1v1-1z M35,42h1v1-1z M39,42h1v1-1z M40,42h1v1-1z M42,42h1v1-1z M43,42h1v1-1z M44,42h1v1-1z M46,42h1v1-1z M47,42h1v1-1z M53,42h1v1-1z M55,42h1v1-1z M56,42h1v1-1z M57,42h1v1-1z M58,42h1v1-1z M59,42h1v1-1z M62,42h1v1-1z M63,42h1v1-1z M65,42h1v1-1z M68,42h1v1-1z M0,43h1v1-1z M4,43h1v1-1z M5,43h1v1-1z M7,43h1v1-1z M8,43h1v1-1z M10,43h1v1-1z M11,43h1v1-1z M17,43h1v1-1z M18,43h1v1-1z M20,43h1v1-1z M21,43h1v1-1z M24,43h1v1-1z M27,43h1v1-1z M30,43h1v1-1z M31,43h1v1-1z M35,43h1v1-1z M36,43h1v1-1z M37,43h1v1-1z M38,43h1v1-1z M41,43h1v1-1z M42,43h1v1-1z M45,43h1v1-1z M49,43h1v1-1z M50,43h1v1-1z M52,43h1v1-1z M56,43h1v1-1z M59,43h1v1-1z M60,43h1v1-1z M62,43h1v1-1z M64,43h1v1-1z M0,44h1v1-1z M1,44h1v1-1z M2,44h1v1-1z M3,44h1v1-1z M6,44h1v1-1z M7,44h1v1-1z M10,44h1v1-1z M11,44h1v1-1z M12,44h1v1-1z M14,44h1v1-1z M15,44h1v1-1z M17,44h1v1-1z M18,44h1v1-1z M21,44h1v1-1z M22,44h1v1-1z M25,44h1v1-1z M27,44h1v1-1z M29,44h1v1-1z M31,44h1v1-1z M35,44h1v1-1z M36,44h1v1-1z M37,44h1v1-1z M40,44h1v1-1z M41,44h1v1-1z M42,44h1v1-1z M44,44h1v1-1z M49,44h1v1-1z M52,44h1v1-1z M54,44h1v1-1z M56,44h1v1-1z M58,44h1v1-1z M59,44h1v1-1z M61,44h1v1-1z M62,44h1v1-1z M63,44h1v1-1z M65,44h1v1-1z M68,44h1v1-1z M3,45h1v1-1z M4,45h1v1-1z M7,45h1v1-1z M10,45h1v1-1z M11,45h1v1-1z M12,45h1v1-1z M13,45h1v1-1z M18,45h1v1-1z M21,45h1v1-1z M22,45h1v1-1z M24,45h1v1-1z M26,45h1v1-1z M29,45h1v1-1z M30,45h1v1-1z M32,45h1v1-1z M33,45h1v1-1z M34,45h1v1-1z M35,45h1v1-1z M38,45h1v1-1z M41,45h1v1-1z M42,45h1v1-1z M46,45h1v1-1z M48,45h1v1-1z M49,45h1v1-1z M52,45h1v1-1z M53,45h1v1-1z M60,45h1v1-1z M61,45h1v1-1z M63,45h1v1-1z M65,45h1v1-1z M68,45h1v1-1z M0,46h1v1-1z M4,46h1v1-1z M5,46h1v1-1z M6,46h1v1-1z M8,46h1v1-1z M12,46h1v1-1z M14,46h1v1-1z M17,46h1v1-1z M18,46h1v1-1z M20,46h1v1-1z M22,46h1v1-1z M23,46h1v1-1z M24,46h1v1-1z M25,46h1v1-1z M26,46h1v1-1z M31,46h1v1-1z M32,46h1v1-1z M33,46h1v1-1z M36,46h1v1-1z M37,46h1v1-1z M38,46h1v1-1z M40,46h1v1-1z M41,46h1v1-1z M42,46h1v1-1z M44,46h1v1-1z M45,46h1v1-1z M49,46h1v1-1z M51,46h1v1-1z M52,46h1v1-1z M56,46h1v1-1z M58,46h1v1-1z M59,46h1v1-1z M60,46h1v1-1z M62,46h1v1-1z M64,46h1v1-1z M66,46h1v1-1z M68,46h1v1-1z M1,47h1v1-1z M3,47h1v1-1z M4,47h1v1-1z M8,47h1v1-1z M9,47h1v1-1z M12,47h1v1-1z M14,47h1v1-1z M16,47h1v1-1z M17,47h1v1-1z M19,47h1v1-1z M22,47h1v1-1z M25,47h1v1-1z M26,47h1v1-1z M29,47h1v1-1z M33,47h1v1-1z M34,47h1v1-1z M35,47h1v1-1z M36,47h1v1-1z M38,47h1v1-1z M40,47h1v1-1z M42,47h1v1-1z M43,47h1v1-1z M44,47h1v1-1z M52,47h1v1-1z M53,47h1v1-1z M54,47h1v1-1z M55,47h1v1-1z M56,47h1v1-1z M59,47h1v1-1z M61,47h1v1-1z M62,47h1v1-1z M63,47h1v1-1z M65,47h1v1-1z M67,47h1v1-1z M68,47h1v1-1z M0,48h1v1-1z M3,48h1v1-1z M4,48h1v1-1z M5,48h1v1-1z M6,48h1v1-1z M11,48h1v1-1z M15,48h1v1-1z M18,48h1v1-1z M20,48h1v1-1z M21,48h1v1-1z M22,48h1v1-1z M23,48h1v1-1z M27,48h1v1-1z M29,48h1v1-1z M34,48h1v1-1z M41,48h1v1-1z M49,48h1v1-1z M50,48h1v1-1z M52,48h1v1-1z M53,48h1v1-1z M54,48h1v1-1z M56,48h1v1-1z M57,48h1v1-1z M59,48h1v1-1z M60,48h1v1-1z M62,48h1v1-1z M63,48h1v1-1z M67,48h1v1-1z M68,48h1v1-1z M0,49h1v1-1z M1,49h1v1-1z M4,49h1v1-1z M5,49h1v1-1z M7,49h1v1-1z M9,49h1v1-1z M10,49h1v1-1z M11,49h1v1-1z M12,49h1v1-1z M14,49h1v1-1z M15,49h1v1-1z M16,49h1v1-1z M17,49h1v1-1z M18,49h1v1-1z M19,49h1v1-1z M21,49h1v1-1z M22,49h1v1-1z M23,49h1v1-1z M25,49h1v1-1z M28,49h1v1-1z M31,49h1v1-1z M32,49h1v1-1z M33,49h1v1-1z M35,49h1v1-1z M37,49h1v1-1z M38,49h1v1-1z M39,49h1v1-1z M40,49h1v1-1z M42,49h1v1-1z M44,49h1v1-1z M45,49h1v1-1z M46,49h1v1-1z M48,49h1v1-1z M49,49h1v1-1z M51,49h1v1-1z M53,49h1v1-1z M55,49h1v1-1z M57,49h1v1-1z M60,49h1v1-1z M61,49h1v1-1z M66,49h1v1-1z M68,49h1v1-1z M0,50h1v1-1z M1,50h1v1-1z M3,50h1v1-1z M4,50h1v1-1z M5,50h1v1-1z M6,50h1v1-1z M16,50h1v1-1z M17,50h1v1-1z M19,50h1v1-1z M21,50h1v1-1z M22,50h1v1-1z M23,50h1v1-1z M25,50h1v1-1z M26,50h1v1-1z M27,50h1v1-1z M29,50h1v1-1z M30,50h1v1-1z M34,50h1v1-1z M36,50h1v1-1z M39,50h1v1-1z M40,50h1v1-1z M41,50h1v1-1z M45,50h1v1-1z M46,50h1v1-1z M49,50h1v1-1z M51,50h1v1-1z M52,50h1v1-1z M53,50h1v1-1z M56,50h1v1-1z M57,50h1v1-1z M59,50h1v1-1z M60,50h1v1-1z M62,50h1v1-1z M64,50h1v1-1z M65,50h1v1-1z M66,50h1v1-1z M68,50h1v1-1z M3,51h1v1-1z M4,51h1v1-1z M10,51h1v1-1z M14,51h1v1-1z M15,51h1v1-1z M19,51h1v1-1z M20,51h1v1-1z M22,51h1v1-1z M23,51h1v1-1z M25,51h1v1-1z M27,51h1v1-1z M28,51h1v1-1z M33,51h1v1-1z M35,51h1v1-1z M36,51h1v1-1z M38,51h1v1-1z M40,51h1v1-1z M42,51h1v1-1z M48,51h1v1-1z M49,51h1v1-1z M52,51h1v1-1z M56,51h1v1-1z M59,51h1v1-1z M62,51h1v1-1z M63,51h1v1-1z M65,51h1v1-1z M67,51h1v1-1z M0,52h1v1-1z M4,52h1v1-1z M5,52h1v1-1z M6,52h1v1-1z M7,52h1v1-1z M8,52h1v1-1z M11,52h1v1-1z M13,52h1v1-1z M15,52h1v1-1z M17,52h1v1-1z M19,52h1v1-1z M20,52h1v1-1z M21,52h1v1-1z M22,52h1v1-1z M23,52h1v1-1z M25,52h1v1-1z M26,52h1v1-1z M27,52h1v1-1z M32,52h1v1-1z M37,52h1v1-1z M40,52h1v1-1z M44,52h1v1-1z M45,52h1v1-1z M46,52h1v1-1z M48,52h1v1-1z M50,52h1v1-1z M52,52h1v1-1z M53,52h1v1-1z M54,52h1v1-1z M56,52h1v1-1z M59,52h1v1-1z M61,52h1v1-1z M62,52h1v1-1z M65,52h1v1-1z M67,52h1v1-1z M0,53h1v1-1z M3,53h1v1-1z M5,53h1v1-1z M7,53h1v1-1z M8,53h1v1-1z M9,53h1v1-1z M11,53h1v1-1z M12,53h1v1-1z M15,53h1v1-1z M16,53h1v1-1z M17,53h1v1-1z M18,53h1v1-1z M19,53h1v1-1z M21,53h1v1-1z M22,53h1v1-1z M23,53h1v1-1z M24,53h1v1-1z M26,53h1v1-1z M32,53h1v1-1z M34,53h1v1-1z M36,53h1v1-1z M37,53h1v1-1z M38,53h1v1-1z M40,53h1v1-1z M43,53h1v1-1z M45,53h1v1-1z M48,53h1v1-1z M51,53h1v1-1z M53,53h1v1-1z M57,53h1v1-1z M60,53h1v1-1z M63,53h1v1-1z M66,53h1v1-1z M68,53h1v1-1z M2,54h1v1-1z M3,54h1v1-1z M6,54h1v1-1z M8,54h1v1-1z M13,54h1v1-1z M14,54h1v1-1z M15,54h1v1-1z M16,54h1v1-1z M18,54h1v1-1z M19,54h1v1-1z M21,54h1v1-1z M27,54h1v1-1z M32,54h1v1-1z M33,54h1v1-1z M34,54h1v1-1z M41,54h1v1-1z M42,54h1v1-1z M44,54h1v1-1z M45,54h1v1-1z M47,54h1v1-1z M48,54h1v1-1z M49,54h1v1-1z M53,54h1v1-1z M56,54h1v1-1z M60,54h1v1-1z M62,54h1v1-1z M63,54h1v1-1z M66,54h1v1-1z M67,54h1v1-1z M68,54h1v1-1z M0,55h1v1-1z M2,55h1v1-1z M3,55h1v1-1z M9,55h1v1-1z M11,55h1v1-1z M12,55h1v1-1z M14,55h1v1-1z M18,55h1v1-1z M19,55h1v1-1z M23,55h1v1-1z M25,55h1v1-1z M27,55h1v1-1z M29,55h1v1-1z M30,55h1v1-1z M31,55h1v1-1z M35,55h1v1-1z M41,55h1v1-1z M42,55h1v1-1z M43,55h1v1-1z M46,55h1v1-1z M48,55h1v1-1z M49,55h1v1-1z M50,55h1v1-1z M52,55h1v1-1z M53,55h1v1-1z M56,55h1v1-1z M57,55h1v1-1z M59,55h1v1-1z M60,55h1v1-1z M62,55h1v1-1z M63,55h1v1-1z M64,55h1v1-1z M65,55h1v1-1z M68,55h1v1-1z M1,56h1v1-1z M2,56h1v1-1z M6,56h1v1-1z M7,56h1v1-1z M8,56h1v1-1z M9,56h1v1-1z M10,56h1v1-1z M13,56h1v1-1z M14,56h1v1-1z M15,56h1v1-1z M19,56h1v1-1z M20,56h1v1-1z M25,56h1v1-1z M27,56h1v1-1z M29,56h1v1-1z M31,56h1v1-1z M32,56h1v1-1z M34,56h1v1-1z M42,56h1v1-1z M46,56h1v1-1z M47,56h1v1-1z M48,56h1v1-1z M50,56h1v1-1z M51,56h1v1-1z M52,56h1v1-1z M54,56h1v1-1z M56,56h1v1-1z M57,56h1v1-1z M58,56h1v1-1z M59,56h1v1-1z M61,56h1v1-1z M62,56h1v1-1z M63,56h1v1-1z M64,56h1v1-1z M0,57h1v1-1z M1,57h1v1-1z M2,57h1v1-1z M4,57h1v1-1z M8,57h1v1-1z M11,57h1v1-1z M13,57h1v1-1z M14,57h1v1-1z M15,57h1v1-1z M17,57h1v1-1z M18,57h1v1-1z M19,57h1v1-1z M20,57h1v1-1z M21,57h1v1-1z M22,57h1v1-1z M24,57h1v1-1z M25,57h1v1-1z M26,57h1v1-1z M28,57h1v1-1z M30,57h1v1-1z M33,57h1v1-1z M34,57h1v1-1z M35,57h1v1-1z M39,57h1v1-1z M43,57h1v1-1z M44,57h1v1-1z M45,57h1v1-1z M48,57h1v1-1z M49,57h1v1-1z M51,57h1v1-1z M53,57h1v1-1z M55,57h1v1-1z M63,57h1v1-1z M64,57h1v1-1z M68,57h1v1-1z M0,58h1v1-1z M2,58h1v1-1z M4,58h1v1-1z M5,58h1v1-1z M6,58h1v1-1z M9,58h1v1-1z M10,58h1v1-1z M11,58h1v1-1z M12,58h1v1-1z M14,58h1v1-1z M17,58h1v1-1z M19,58h1v1-1z M21,58h1v1-1z M22,58h1v1-1z M23,58h1v1-1z M25,58h1v1-1z M26,58h1v1-1z M28,58h1v1-1z M33,58h1v1-1z M34,58h1v1-1z M36,58h1v1-1z M37,58h1v1-1z M38,58h1v1-1z M41,58h1v1-1z M43,58h1v1-1z M45,58h1v1-1z M46,58h1v1-1z M49,58h1v1-1z M52,58h1v1-1z M56,58h1v1-1z M57,58h1v1-1z M59,58h1v1-1z M62,58h1v1-1z M63,58h1v1-1z M65,58h1v1-1z M68,58h1v1-1z M0,59h1v1-1z M11,59h1v1-1z M14,59h1v1-1z M15,59h1v1-1z M18,59h1v1-1z M19,59h1v1-1z M21,59h1v1-1z M26,59h1v1-1z M29,59h1v1-1z M30,59h1v1-1z M32,59h1v1-1z M33,59h1v1-1z M35,59h1v1-1z M36,59h1v1-1z M39,59h1v1-1z M41,59h1v1-1z M42,59h1v1-1z M44,59h1v1-1z M45,59h1v1-1z M47,59h1v1-1z M48,59h1v1-1z M51,59h1v1-1z M52,59h1v1-1z M54,59h1v1-1z M55,59h1v1-1z M56,59h1v1-1z M57,59h1v1-1z M59,59h1v1-1z M60,59h1v1-1z M61,59h1v1-1z M62,59h1v1-1z M63,59h1v1-1z M64,59h1v1-1z M65,59h1v1-1z M0,60h1v1-1z M3,60h1v1-1z M4,60h1v1-1z M6,60h1v1-1z M9,60h1v1-1z M11,60h1v1-1z M15,60h1v1-1z M17,60h1v1-1z M19,60h1v1-1z M20,60h1v1-1z M22,60h1v1-1z M26,60h1v1-1z M27,60h1v1-1z M28,60h1v1-1z M32,60h1v1-1z M33,60h1v1-1z M34,60h1v1-1z M35,60h1v1-1z M36,60h1v1-1z M37,60h1v1-1z M39,60h1v1-1z M42,60h1v1-1z M46,60h1v1-1z M48,60h1v1-1z M49,60h1v1-1z M50,60h1v1-1z M52,60h1v1-1z M54,60h1v1-1z M56,60h1v1-1z M59,60h1v1-1z M60,60h1v1-1z M61,60h1v1-1z M62,60h1v1-1z M63,60h1v1-1z M64,60h1v1-1z M65,60h1v1-1z M67,60h1v1-1z M68,60h1v1-1z M8,61h1v1-1z M12,61h1v1-1z M15,61h1v1-1z M16,61h1v1-1z M19,61h1v1-1z M20,61h1v1-1z M21,61h1v1-1z M24,61h1v1-1z M25,61h1v1-1z M27,61h1v1-1z M28,61h1v1-1z M31,61h1v1-1z M32,61h1v1-1z M36,61h1v1-1z M37,61h1v1-1z M38,61h1v1-1z M39,61h1v1-1z M41,61h1v1-1z M42,61h1v1-1z M44,61h1v1-1z M46,61h1v1-1z M48,61h1v1-1z M49,61h1v1-1z M53,61h1v1-1z M57,61h1v1-1z M60,61h1v1-1z M64,61h1v1-1z M65,61h1v1-1z M67,61h1v1-1z M68,61h1v1-1z M0,62h1v1-1z M1,62h1v1-1z M2,62h1v1-1z M3,62h1v1-1z M4,62h1v1-1z M5,62h1v1-1z M6,62h1v1-1z M8,62h1v1-1z M11,62h1v1-1z M12,62h1v1-1z M14,62h1v1-1z M15,62h1v1-1z M16,62h1v1-1z M18,62h1v1-1z M25,62h1v1-1z M27,62h1v1-1z M31,62h1v1-1z M32,62h1v1-1z M34,62h1v1-1z M36,62h1v1-1z M38,62h1v1-1z M40,62h1v1-1z M47,62h1v1-1z M48,62h1v1-1z M49,62h1v1-1z M51,62h1v1-1z M52,62h1v1-1z M55,62h1v1-1z M57,62h1v1-1z M59,62h1v1-1z M60,62h1v1-1z M62,62h1v1-1z M64,62h1v1-1z M68,62h1v1-1z M0,63h1v1-1z M6,63h1v1-1z M8,63h1v1-1z M9,63h1v1-1z M12,63h1v1-1z M13,63h1v1-1z M17,63h1v1-1z M18,63h1v1-1z M20,63h1v1-1z M22,63h1v1-1z M23,63h1v1-1z M24,63h1v1-1z M26,63h1v1-1z M28,63h1v1-1z M30,63h1v1-1z M31,63h1v1-1z M32,63h1v1-1z M36,63h1v1-1z M37,63h1v1-1z M40,63h1v1-1z M43,63h1v1-1z M46,63h1v1-1z M48,63h1v1-1z M52,63h1v1-1z M53,63h1v1-1z M56,63h1v1-1z M60,63h1v1-1z M64,63h1v1-1z M67,63h1v1-1z M68,63h1v1-1z M0,64h1v1-1z M2,64h1v1-1z M3,64h1v1-1z M4,64h1v1-1z M6,64h1v1-1z M10,64h1v1-1z M11,64h1v1-1z M12,64h1v1-1z M14,64h1v1-1z M15,64h1v1-1z M16,64h1v1-1z M20,64h1v1-1z M22,64h1v1-1z M25,64h1v1-1z M29,64h1v1-1z M30,64h1v1-1z M31,64h1v1-1z M32,64h1v1-1z M33,64h1v1-1z M34,64h1v1-1z M35,64h1v1-1z M36,64h1v1-1z M37,64h1v1-1z M42,64h1v1-1z M45,64h1v1-1z M46,64h1v1-1z M48,64h1v1-1z M52,64h1v1-1z M53,64h1v1-1z M54,64h1v1-1z M55,64h1v1-1z M56,64h1v1-1z M58,64h1v1-1z M59,64h1v1-1z M60,64h1v1-1z M61,64h1v1-1z M62,64h1v1-1z M63,64h1v1-1z M64,64h1v1-1z M65,64h1v1-1z M0,65h1v1-1z M2,65h1v1-1z M3,65h1v1-1z M4,65h1v1-1z M6,65h1v1-1z M9,65h1v1-1z M11,65h1v1-1z M12,65h1v1-1z M13,65h1v1-1z M17,65h1v1-1z M18,65h1v1-1z M21,65h1v1-1z M22,65h1v1-1z M24,65h1v1-1z M25,65h1v1-1z M26,65h1v1-1z M27,65h1v1-1z M28,65h1v1-1z M34,65h1v1-1z M35,65h1v1-1z M37,65h1v1-1z M42,65h1v1-1z M43,65h1v1-1z M44,65h1v1-1z M46,65h1v1-1z M48,65h1v1-1z M49,65h1v1-1z M51,65h1v1-1z M53,65h1v1-1z M56,65h1v1-1z M57,65h1v1-1z M59,65h1v1-1z M60,65h1v1-1z M61,65h1v1-1z M62,65h1v1-1z M64,65h1v1-1z M65,65h1v1-1z M0,66h1v1-1z M2,66h1v1-1z M3,66h1v1-1z M4,66h1v1-1z M6,66h1v1-1z M8,66h1v1-1z M10,66h1v1-1z M11,66h1v1-1z M13,66h1v1-1z M17,66h1v1-1z M23,66h1v1-1z M27,66h1v1-1z M28,66h1v1-1z M30,66h1v1-1z M31,66h1v1-1z M33,66h1v1-1z M35,66h1v1-1z M36,66h1v1-1z M37,66h1v1-1z M39,66h1v1-1z M41,66h1v1-1z M43,66h1v1-1z M44,66h1v1-1z M47,66h1v1-1z M48,66h1v1-1z M49,66h1v1-1z M52,66h1v1-1z M53,66h1v1-1z M55,66h1v1-1z M56,66h1v1-1z M60,66h1v1-1z M61,66h1v1-1z M64,66h1v1-1z M65,66h1v1-1z M66,66h1v1-1z M67,66h1v1-1z M68,66h1v1-1z M0,67h1v1-1z M6,67h1v1-1z M13,67h1v1-1z M14,67h1v1-1z M16,67h1v1-1z M17,67h1v1-1z M18,67h1v1-1z M19,67h1v1-1z M20,67h1v1-1z M21,67h1v1-1z M22,67h1v1-1z M23,67h1v1-1z M24,67h1v1-1z M25,67h1v1-1z M29,67h1v1-1z M31,67h1v1-1z M32,67h1v1-1z M34,67h1v1-1z M41,67h1v1-1z M44,67h1v1-1z M48,67h1v1-1z M49,67h1v1-1z M51,67h1v1-1z M52,67h1v1-1z M56,67h1v1-1z M57,67h1v1-1z M61,67h1v1-1z M65,67h1v1-1z M0,68h1v1-1z M1,68h1v1-1z M2,68h1v1-1z M3,68h1v1-1z M4,68h1v1-1z M5,68h1v1-1z M6,68h1v1-1z M9,68h1v1-1z M14,68h1v1-1z M15,68h1v1-1z M16,68h1v1-1z M23,68h1v1-1z M24,68h1v1-1z M27,68h1v1-1z M28,68h1v1-1z M29,68h1v1-1z M30,68h1v1-1z M32,68h1v1-1z M37,68h1v1-1z M38,68h1v1-1z M39,68h1v1-1z M40,68h1v1-1z M41,68h1v1-1z M42,68h1v1-1z M46,68h1v1-1z M48,68h1v1-1z M49,68h1v1-1z M50,68h1v1-1z M52,68h1v1-1z M53,68h1v1-1z M56,68h1v1-1z M58,68h1v1-1z M61,68h1v1-1z M68,68h1v1-1z"/></svg>